  0
SECTION
  2
HEADER
  9
$ACADVER
  1
AC1009
  9
$DWGCODEPAGE
  3
ansi_1252
  9
$INSBASE
 10
0.0
 20
0.0
 30
0.0
  9
$EXTMIN
 10
-11.29296054368545
 20
-12.68993642094817
 30
0.0
  9
$EXTMAX
 10
340.6198224852071
 20
157.6923076923077
 30
0.0
  9
$LIMMIN
 10
0.0
 20
0.0
  9
$LIMMAX
 10
12.0
 20
9.0
  9
$ORTHOMODE
 70
     0
  9
$REGENMODE
 70
     1
  9
$FILLMODE
 70
     1
  9
$QTEXTMODE
 70
     0
  9
$MIRRTEXT
 70
     1
  9
$DRAGMODE
 70
     2
  9
$LTSCALE
 40
1.0
  9
$OSMODE
 70
    37
  9
$ATTMODE
 70
     1
  9
$TEXTSIZE
 40
0.2
  9
$TRACEWID
 40
0.05
  9
$TEXTSTYLE
  7
STANDARD
  9
$CLAYER
  8
LAYER_04
  9
$CELTYPE
  6
BYLAYER
  9
$CECOLOR
 62
   256
  9
$DIMSCALE
 40
1.0
  9
$DIMASZ
 40
0.18
  9
$DIMEXO
 40
0.0625
  9
$DIMDLI
 40
0.38
  9
$DIMRND
 40
0.0
  9
$DIMDLE
 40
0.0
  9
$DIMEXE
 40
0.18
  9
$DIMTP
 40
0.0
  9
$DIMTM
 40
0.0
  9
$DIMTXT
 40
0.18
  9
$DIMCEN
 40
0.09
  9
$DIMTSZ
 40
0.0
  9
$DIMTOL
 70
     0
  9
$DIMLIM
 70
     0
  9
$DIMTIH
 70
     1
  9
$DIMTOH
 70
     1
  9
$DIMSE1
 70
     0
  9
$DIMSE2
 70
     0
  9
$DIMTAD
 70
     0
  9
$DIMZIN
 70
     0
  9
$DIMBLK
  1

  9
$DIMASO
 70
     1
  9
$DIMSHO
 70
     1
  9
$DIMPOST
  1

  9
$DIMAPOST
  1

  9
$DIMALT
 70
     0
  9
$DIMALTD
 70
     2
  9
$DIMALTF
 40
25.4
  9
$DIMLFAC
 40
1.0
  9
$DIMTOFL
 70
     0
  9
$DIMTVP
 40
0.0
  9
$DIMTIX
 70
     0
  9
$DIMSOXD
 70
     0
  9
$DIMSAH
 70
     0
  9
$DIMBLK1
  1

  9
$DIMBLK2
  1

  9
$DIMSTYLE
  2
STANDARD_ACAD
  9
$DIMCLRD
 70
     0
  9
$DIMCLRE
 70
     0
  9
$DIMCLRT
 70
     0
  9
$DIMTFAC
 40
1.0
  9
$DIMGAP
 40
0.09
  9
$LUNITS
 70
     2
  9
$LUPREC
 70
     3
  9
$SKETCHINC
 40
0.1
  9
$FILLETRAD
 40
0.0
  9
$AUNITS
 70
     0
  9
$AUPREC
 70
     0
  9
$MENU
  1
.
  9
$ELEVATION
 40
0.0
  9
$PELEVATION
 40
0.0
  9
$THICKNESS
 40
0.0
  9
$LIMCHECK
 70
     0
  9
$CHAMFERA
 40
0.0
  9
$CHAMFERB
 40
0.0
  9
$SKPOLY
 70
     0
  9
$TDCREATE
 40
2460395.820914479
  9
$TDUPDATE
 40
2460395.821030822
  9
$TDINDWG
 40
0.0000000116
  9
$TDUSRTIMER
 40
0.0000000116
  9
$USRTIMER
 70
     1
  9
$ANGBASE
 50
0.0
  9
$ANGDIR
 70
     0
  9
$PDMODE
 70
     0
  9
$PDSIZE
 40
0.0
  9
$PLINEWID
 40
0.0
  9
$COORDS
 70
     1
  9
$SPLFRAME
 70
     0
  9
$SPLINETYPE
 70
     6
  9
$SPLINESEGS
 70
     8
  9
$ATTDIA
 70
     0
  9
$ATTREQ
 70
     1
  9
$HANDLING
 70
     1
  9
$HANDSEED
  5
164
  9
$SURFTAB1
 70
     6
  9
$SURFTAB2
 70
     6
  9
$SURFTYPE
 70
     6
  9
$SURFU
 70
     6
  9
$SURFV
 70
     6
  9
$UCSNAME
  2

  9
$UCSORG
 10
0.0
 20
0.0
 30
0.0
  9
$UCSXDIR
 10
1.0
 20
0.0
 30
0.0
  9
$UCSYDIR
 10
0.0
 20
1.0
 30
0.0
  9
$PUCSNAME
  2

  9
$PUCSORG
 10
0.0
 20
0.0
 30
0.0
  9
$PUCSXDIR
 10
1.0
 20
0.0
 30
0.0
  9
$PUCSYDIR
 10
0.0
 20
1.0
 30
0.0
  9
$USERI1
 70
     0
  9
$USERI2
 70
     0
  9
$USERI3
 70
     0
  9
$USERI4
 70
     0
  9
$USERI5
 70
     0
  9
$USERR1
 40
0.0
  9
$USERR2
 40
0.0
  9
$USERR3
 40
0.0
  9
$USERR4
 40
0.0
  9
$USERR5
 40
0.0
  9
$WORLDVIEW
 70
     1
  9
$SHADEDGE
 70
     3
  9
$SHADEDIF
 70
    70
  9
$TILEMODE
 70
     1
  9
$MAXACTVP
 70
    64
  9
$PLIMCHECK
 70
     0
  9
$PEXTMIN
 10
1.000000000000000E+20
 20
1.000000000000000E+20
 30
1.000000000000000E+20
  9
$PEXTMAX
 10
-1.000000000000000E+20
 20
-1.000000000000000E+20
 30
-1.000000000000000E+20
  9
$PLIMMIN
 10
0.0
 20
0.0
  9
$PLIMMAX
 10
12.0
 20
9.0
  9
$UNITMODE
 70
     0
  9
$VISRETAIN
 70
     1
  9
$PLINEGEN
 70
     0
  9
$PSLTSCALE
 70
     1
  0
ENDSEC
  0
SECTION
  2
TABLES
  0
TABLE
  2
VPORT
 70
     1
  0
VPORT
  2
*ACTIVE
 70
     0
 10
0.0
 20
0.0
 11
1.0
 21
1.0
 12
10.42990654205607
 22
4.5
 13
0.0
 23
0.0
 14
0.5
 24
0.5
 15
0.5
 25
0.5
 16
0.0
 26
0.0
 36
1.0
 17
0.0
 27
0.0
 37
0.0
 40
9.0
 41
1.972972972850329
 42
50.0
 43
0.0
 44
0.0
 50
0.0
 51
0.0
 71
     0
 72
   100
 73
     1
 74
     3
 75
     0
 76
     0
 77
     0
 78
     0
  0
ENDTAB
  0
TABLE
  2
LTYPE
 70
     3
  0
LTYPE
  2
CONTINUOUS
 70
     0
  3
Solid line
 72
    65
 73
     0
 40
0.0
  0
LTYPE
  2
DOTS
 70
     0
  3

 72
    65
 73
     2
 40
1.0
 49
0.0
 49
-1.0
  0
LTYPE
  2
DASHDOT
 70
     0
  3

 72
    65
 73
     4
 40
6.0
 49
4.0
 49
-1.0
 49
0.0
 49
-1.0
  0
ENDTAB
  0
TABLE
  2
LAYER
 70
     6
  0
LAYER
  2
0
 70
     0
 62
     7
  6
CONTINUOUS
  0
LAYER
  2
LAYER_04
 70
     0
 62
    96
  6
CONTINUOUS
  0
LAYER
  2
DEFPOINTS
 70
     0
 62
     7
  6
CONTINUOUS
  0
LAYER
  2
LAYER_05
 70
     0
 62
     7
  6
DOTS
  0
LAYER
  2
LAYER_01
 70
     0
 62
    12
  6
DASHDOT
  0
LAYER
  2
LAYER_03
 70
     0
 62
     5
  6
CONTINUOUS
  0
ENDTAB
  0
TABLE
  2
STYLE
 70
     2
  0
STYLE
  2
STANDARD
 70
     0
 40
0.0
 41
1.0
 50
0.0
 71
     0
 42
0.2
  3
txt
  4

  0
STYLE
  2
SHOW_AND_TELL
 70
     0
 40
0.0
 41
1.0
 50
0.0
 71
     0
 42
0.2
  3
SourceSansPro-Regular.ttf
  4

  0
ENDTAB
  0
TABLE
  2
VIEW
 70
     0
  0
ENDTAB
  0
TABLE
  2
UCS
 70
     0
  0
ENDTAB
  0
TABLE
  2
APPID
 70
     3
  0
APPID
  2
ACAD
 70
     0
  0
APPID
  2
RHINO
 70
     0
  0
APPID
  2
ACADANNOTATIVE
 70
     0
  0
ENDTAB
  0
TABLE
  2
DIMSTYLE
 70
     2
  0
DIMSTYLE
  2
STANDARD_ACAD
 70
     0
  3

  4

  5

  6

  7

 40
1.0
 41
0.18
 42
0.0625
 43
0.38
 44
0.18
 45
0.0
 46
0.0
 47
0.0
 48
0.0
140
0.18
141
0.09
142
0.0
143
25.4
144
1.0
145
0.0
146
1.0
147
0.09
 71
     0
 72
     0
 73
     1
 74
     1
 75
     0
 76
     0
 77
     0
 78
     0
170
     0
171
     2
172
     0
173
     0
174
     0
175
     0
176
     0
177
     0
178
     0
  0
DIMSTYLE
  2
SHOW_AND_TELL
 70
     0
  3

  4

  5
OPEN90
  6

  7

 40
1.0
 41
2.0
 42
0.0
 43
0.38
 44
0.0
 45
0.0
 46
0.0
 47
0.0
 48
0.0
140
4.5
141
2.5
142
0.0
143
0.0393700787401575
144
1.0
145
0.0
146
1.0
147
0.8999999999999999
 71
     0
 72
     0
 73
     0
 74
     1
 75
     0
 76
     0
 77
     0
 78
     1
170
     0
171
     2
172
     0
173
     0
174
     1
175
     0
176
     0
177
     0
178
     0
  0
ENDTAB
  0
ENDSEC
  0
SECTION
  2
BLOCKS
  0
BLOCK
  8
0
  2
$MODEL_SPACE
 70
     0
 10
0.0
 20
0.0
 30
0.0
  3
$MODEL_SPACE
  1

  0
ENDBLK
  5
21
  8
0
  0
BLOCK
 67
     1
  8
0
  2
$PAPER_SPACE
 70
     0
 10
0.0
 20
0.0
 30
0.0
  3
$PAPER_SPACE
  1

  0
ENDBLK
  5
1D
 67
     1
  8
0
  0
BLOCK
  8
0
  2
_OPEN90
 70
     0
 10
0.0
 20
0.0
 30
0.0
  3
_OPEN90
  1

  0
LINE
  5
65
  8
0
  6
BYBLOCK
 62
     0
 10
-0.5
 20
0.5
 30
0.0
 11
0.0
 21
0.0
 31
0.0
  0
LINE
  5
66
  8
0
  6
BYBLOCK
 62
     0
 10
0.0
 20
0.0
 30
0.0
 11
-0.5
 21
-0.5
 31
0.0
  0
LINE
  5
67
  8
0
  6
BYBLOCK
 62
     0
 10
0.0
 20
0.0
 30
0.0
 11
-1.0
 21
0.0
 31
0.0
  0
ENDBLK
  5
64
  8
0
  0
BLOCK
  8
0
  2
*D2
 70
     1
 10
0.0
 20
0.0
 30
0.0
  3
*D2
  1

  0
LINE
  5
6D
  8
LAYER_04
 62
     0
 10
-9.002460543685459
 20
0.0
 30
0.0
 11
-9.002460543685459
 21
0.0
 31
0.0
  0
LINE
  5
6E
  8
LAYER_04
 62
     0
 10
-9.002460543685459
 20
147.5
 30
0.0
 11
-9.00246054368545
 21
147.5
 31
0.0
  0
LINE
  5
6F
  8
LAYER_04
 62
     0
 10
-9.002460543685459
 20
2.0
 30
0.0
 11
-9.002460543685455
 21
63.34375000000001
 31
0.0
  0
LINE
  5
70
  8
LAYER_04
 62
     0
 10
-9.00246054368545
 20
145.5
 30
0.0
 11
-9.002460543685453
 21
84.15625
 31
0.0
  0
INSERT
  5
71
  8
LAYER_04
 62
     0
  2
_OPEN90
 10
-9.002460543685459
 20
0.0
 30
0.0
 41
2.0
 42
2.0
 43
2.0
 50
270.0
  0
INSERT
  5
72
  8
LAYER_04
 62
     0
  2
_OPEN90
 10
-9.00246054368545
 20
147.5
 30
0.0
 41
2.0
 42
2.0
 43
2.0
 50
90.0
  0
TEXT
  5
73
  8
LAYER_04
 62
     0
 10
-6.792960543685453
 20
64.24375
 30
0.0
 40
4.5
  1
  Z+X+t
 50
90.0
  7
SHOW_AND_TELL
1001
ACADANNOTATIVE
1000
AnnotativeData
1002
{
1070
     1
1070
     0
1002
}
  0
POINT
  5
74
  8
DEFPOINTS
 62
     0
 10
-9.002460543685459
 20
0.0
 30
0.0
  0
POINT
  5
75
  8
DEFPOINTS
 62
     0
 10
-9.002460543685459
 20
147.5
 30
0.0
  0
POINT
  5
76
  8
DEFPOINTS
 62
     0
 10
-9.00246054368545
 20
147.5
 30
0.0
  0
ENDBLK
  5
6C
  8
0
  0
BLOCK
  8
0
  2
*D3
 70
     1
 10
0.0
 20
0.0
 30
0.0
  3
*D3
  1

  0
LINE
  5
7B
  8
LAYER_04
 62
     0
 10
141.0
 20
131.875
 30
0.0
 11
141.0
 21
131.875
 31
0.0
  0
LINE
  5
7C
  8
LAYER_04
 62
     0
 10
145.0
 20
131.8749999999999
 30
0.0
 11
145.0
 21
131.875
 31
0.0
  0
LINE
  5
7D
  8
LAYER_04
 62
     0
 10
147.0
 20
131.875
 30
0.0
 11
149.0
 21
131.875
 31
0.0
  0
LINE
  5
7E
  8
LAYER_04
 62
     0
 10
139.0
 20
131.875
 30
0.0
 11
137.0
 21
131.875
 31
0.0
  0
INSERT
  5
7F
  8
LAYER_04
 62
     0
  2
_OPEN90
 10
141.0
 20
131.875
 30
0.0
 41
2.0
 42
2.0
 43
2.0
  0
INSERT
  5
80
  8
LAYER_04
 62
     0
  2
_OPEN90
 10
145.0
 20
131.875
 30
0.0
 41
2.0
 42
2.0
 43
2.0
 50
180.0
  0
TEXT
  5
81
  8
LAYER_04
 62
     0
 10
149.9
 20
129.625
 30
0.0
 40
4.5
  1
 4
  7
SHOW_AND_TELL
1001
ACADANNOTATIVE
1000
AnnotativeData
1002
{
1070
     1
1070
     0
1002
}
  0
POINT
  5
82
  8
DEFPOINTS
 62
     0
 10
141.0
 20
131.875
 30
0.0
  0
POINT
  5
83
  8
DEFPOINTS
 62
     0
 10
145.0
 20
131.8749999999999
 30
0.0
  0
POINT
  5
84
  8
DEFPOINTS
 62
     0
 10
145.0
 20
131.875
 30
0.0
  0
ENDBLK
  5
7A
  8
0
  0
BLOCK
  8
0
  2
*D4
 70
     1
 10
0.0
 20
0.0
 30
0.0
  3
*D4
  1

  0
LINE
  5
95
  8
LAYER_04
 62
     0
 10
297.0
 20
73.75
 30
0.0
 11
297.0
 21
73.72897776722954
 31
0.0
  0
LINE
  5
96
  8
LAYER_04
 62
     0
 10
295.0
 20
73.74999999999989
 30
0.0
 11
295.0
 21
73.72897776722954
 31
0.0
  0
LINE
  5
97
  8
LAYER_04
 62
     0
 10
293.0
 20
73.72897776722954
 30
0.0
 11
291.0
 21
73.72897776722954
 31
0.0
  0
LINE
  5
98
  8
LAYER_04
 62
     0
 10
299.0
 20
73.72897776722954
 30
0.0
 11
301.0
 21
73.72897776722954
 31
0.0
  0
INSERT
  5
99
  8
LAYER_04
 62
     0
  2
_OPEN90
 10
297.0
 20
73.72897776722954
 30
0.0
 41
2.0
 42
2.0
 43
2.0
 50
180.0
  0
INSERT
  5
9A
  8
LAYER_04
 62
     0
  2
_OPEN90
 10
295.0
 20
73.72897776722954
 30
0.0
 41
2.0
 42
2.0
 43
2.0
  0
TEXT
  5
9B
  8
LAYER_04
 62
     0
 10
286.9995000000001
 20
71.47897776722954
 30
0.0
 40
4.5
  1
2
  7
SHOW_AND_TELL
1001
ACADANNOTATIVE
1000
AnnotativeData
1002
{
1070
     1
1070
     0
1002
}
  0
POINT
  5
9C
  8
DEFPOINTS
 62
     0
 10
297.0
 20
73.75
 30
0.0
  0
POINT
  5
9D
  8
DEFPOINTS
 62
     0
 10
295.0
 20
73.74999999999989
 30
0.0
  0
POINT
  5
9E
  8
DEFPOINTS
 62
     0
 10
295.0
 20
73.72897776722954
 30
0.0
  0
ENDBLK
  5
94
  8
0
  0
BLOCK
  8
0
  2
*D5
 70
     1
 10
0.0
 20
0.0
 30
0.0
  3
*D5
  1

  0
LINE
  5
A8
  8
LAYER_04
 62
     0
 10
60.0
 20
16.875
 30
0.0
 11
60.0
 21
16.875
 31
0.0
  0
LINE
  5
A9
  8
LAYER_04
 62
     0
 10
0.0
 20
16.875
 30
0.0
 11
0.0
 21
16.875
 31
0.0
  0
LINE
  5
AA
  8
LAYER_04
 62
     0
 10
58.0
 20
16.875
 30
0.0
 11
33.98025
 21
16.875
 31
0.0
  0
LINE
  5
AB
  8
LAYER_04
 62
     0
 10
2.0
 20
16.875
 30
0.0
 11
26.01975
 21
16.875
 31
0.0
  0
INSERT
  5
AC
  8
LAYER_04
 62
     0
  2
_OPEN90
 10
60.0
 20
16.875
 30
0.0
 41
2.0
 42
2.0
 43
2.0
  0
INSERT
  5
AD
  8
LAYER_04
 62
     0
  2
_OPEN90
 10
0.0
 20
16.875
 30
0.0
 41
2.0
 42
2.0
 43
2.0
 50
180.0
  0
TEXT
  5
AE
  8
LAYER_04
 62
     0
 10
26.91975
 20
14.625
 30
0.0
 40
4.5
  1
  X
  7
SHOW_AND_TELL
1001
ACADANNOTATIVE
1000
AnnotativeData
1002
{
1070
     1
1070
     0
1002
}
  0
POINT
  5
AF
  8
DEFPOINTS
 62
     0
 10
60.0
 20
16.875
 30
0.0
  0
POINT
  5
B0
  8
DEFPOINTS
 62
     0
 10
0.0
 20
16.875
 30
0.0
  0
POINT
  5
B1
  8
DEFPOINTS
 62
     0
 10
0.0
 20
16.875
 30
0.0
  0
ENDBLK
  5
A7
  8
0
  0
BLOCK
  8
0
  2
*D6
 70
     1
 10
0.0
 20
0.0
 30
0.0
  3
*D6
  1

  0
LINE
  5
B6
  8
LAYER_04
 62
     0
 10
145.0
 20
16.875
 30
0.0
 11
145.0
 21
16.875
 31
0.0
  0
LINE
  5
B7
  8
LAYER_04
 62
     0
 10
65.0
 20
16.875
 30
0.0
 11
65.0
 21
16.875
 31
0.0
  0
LINE
  5
B8
  8
LAYER_04
 62
     0
 10
143.0
 20
16.875
 30
0.0
 11
108.90825
 21
16.875
 31
0.0
  0
LINE
  5
B9
  8
LAYER_04
 62
     0
 10
67.0
 20
16.875
 30
0.0
 11
101.09175
 21
16.875
 31
0.0
  0
INSERT
  5
BA
  8
LAYER_04
 62
     0
  2
_OPEN90
 10
145.0
 20
16.875
 30
0.0
 41
2.0
 42
2.0
 43
2.0
  0
INSERT
  5
BB
  8
LAYER_04
 62
     0
  2
_OPEN90
 10
65.0
 20
16.875
 30
0.0
 41
2.0
 42
2.0
 43
2.0
 50
180.0
  0
TEXT
  5
BC
  8
LAYER_04
 62
     0
 10
101.99175
 20
14.625
 30
0.0
 40
4.5
  1
  Y
  7
SHOW_AND_TELL
1001
ACADANNOTATIVE
1000
AnnotativeData
1002
{
1070
     1
1070
     0
1002
}
  0
POINT
  5
BD
  8
DEFPOINTS
 62
     0
 10
145.0
 20
16.875
 30
0.0
  0
POINT
  5
BE
  8
DEFPOINTS
 62
     0
 10
65.0
 20
16.875
 30
0.0
  0
POINT
  5
BF
  8
DEFPOINTS
 62
     0
 10
65.0
 20
16.875
 30
0.0
  0
ENDBLK
  5
B5
  8
0
  0
BLOCK
  8
0
  2
*D7
 70
     1
 10
0.0
 20
0.0
 30
0.0
  3
*D7
  1

  0
LINE
  5
C4
  8
LAYER_04
 62
     0
 10
317.5
 20
23.75
 30
0.0
 11
317.5
 21
23.75
 31
0.0
  0
LINE
  5
C5
  8
LAYER_04
 62
     0
 10
295.0
 20
23.75
 30
0.0
 11
295.0
 21
23.75
 31
0.0
  0
LINE
  5
C6
  8
LAYER_04
 62
     0
 10
315.5
 20
23.75
 30
0.0
 11
314.037925
 21
23.75
 31
0.0
  0
LINE
  5
C7
  8
LAYER_04
 62
     0
 10
297.0
 20
23.75
 30
0.0
 11
298.462075
 21
23.75
 31
0.0
  0
INSERT
  5
C8
  8
LAYER_04
 62
     0
  2
_OPEN90
 10
317.5
 20
23.75
 30
0.0
 41
2.0
 42
2.0
 43
2.0
  0
INSERT
  5
C9
  8
LAYER_04
 62
     0
  2
_OPEN90
 10
295.0
 20
23.75
 30
0.0
 41
2.0
 42
2.0
 43
2.0
 50
180.0
  0
INSERT
  5
CA
  8
LAYER_04
 62
     0
  2
*X13
 10
0.0
 20
0.0
 30
0.0
  0
POINT
  5
CB
  8
DEFPOINTS
 62
     0
 10
317.5
 20
23.75
 30
0.0
  0
POINT
  5
CC
  8
DEFPOINTS
 62
     0
 10
295.0
 20
23.75
 30
0.0
  0
POINT
  5
CD
  8
DEFPOINTS
 62
     0
 10
295.0
 20
23.75
 30
0.0
  0
ENDBLK
  5
C3
  8
0
  0
BLOCK
  8
0
  2
*D8
 70
     1
 10
0.0
 20
0.0
 30
0.0
  3
*D8
  1

  0
LINE
  5
D2
  8
LAYER_04
 62
     0
 10
58.75
 20
33.75
 30
0.0
 11
58.75
 21
33.75
 31
0.0
  0
LINE
  5
D3
  8
LAYER_04
 62
     0
 10
58.75
 20
113.75
 30
0.0
 11
58.75000000000001
 21
113.75
 31
0.0
  0
LINE
  5
D4
  8
LAYER_04
 62
     0
 10
58.75
 20
35.75
 30
0.0
 11
58.75
 21
69.77425000000001
 31
0.0
  0
LINE
  5
D5
  8
LAYER_04
 62
     0
 10
58.75000000000001
 20
111.75
 30
0.0
 11
58.75000000000001
 21
77.72575
 31
0.0
  0
INSERT
  5
D6
  8
LAYER_04
 62
     0
  2
_OPEN90
 10
58.75
 20
33.75
 30
0.0
 41
2.0
 42
2.0
 43
2.0
 50
270.0
  0
INSERT
  5
D7
  8
LAYER_04
 62
     0
  2
_OPEN90
 10
58.75000000000001
 20
113.75
 30
0.0
 41
2.0
 42
2.0
 43
2.0
 50
90.0
  0
TEXT
  5
D8
  8
LAYER_04
 62
     0
 10
61.0
 20
70.67425
 30
0.0
 40
4.5
  1
  Z
 50
90.0
  7
SHOW_AND_TELL
1001
ACADANNOTATIVE
1000
AnnotativeData
1002
{
1070
     1
1070
     0
1002
}
  0
POINT
  5
D9
  8
DEFPOINTS
 62
     0
 10
58.75
 20
33.75
 30
0.0
  0
POINT
  5
DA
  8
DEFPOINTS
 62
     0
 10
58.75
 20
113.75
 30
0.0
  0
POINT
  5
DB
  8
DEFPOINTS
 62
     0
 10
58.75000000000001
 20
113.75
 30
0.0
  0
ENDBLK
  5
D1
  8
0
  0
BLOCK
  8
0
  2
*D9
 70
     1
 10
0.0
 20
0.0
 30
0.0
  3
*D9
  1

  0
LINE
  5
E0
  8
LAYER_04
 62
     0
 10
210.0
 20
130.625
 30
0.0
 11
210.0
 21
130.625
 31
0.0
  0
LINE
  5
E1
  8
LAYER_04
 62
     0
 10
215.0
 20
130.625
 30
0.0
 11
215.0
 21
130.625
 31
0.0
  0
LINE
  5
E2
  8
LAYER_04
 62
     0
 10
217.0
 20
130.625
 30
0.0
 11
219.0
 21
130.625
 31
0.0
  0
LINE
  5
E3
  8
LAYER_04
 62
     0
 10
208.0
 20
130.625
 30
0.0
 11
206.0
 21
130.625
 31
0.0
  0
INSERT
  5
E4
  8
LAYER_04
 62
     0
  2
_OPEN90
 10
210.0
 20
130.625
 30
0.0
 41
2.0
 42
2.0
 43
2.0
  0
INSERT
  5
E5
  8
LAYER_04
 62
     0
  2
_OPEN90
 10
215.0
 20
130.625
 30
0.0
 41
2.0
 42
2.0
 43
2.0
 50
180.0
  0
TEXT
  5
E6
  8
LAYER_04
 62
     0
 10
219.9
 20
128.4155
 30
0.0
 40
4.5
  1
 t
  7
SHOW_AND_TELL
1001
ACADANNOTATIVE
1000
AnnotativeData
1002
{
1070
     1
1070
     0
1002
}
  0
POINT
  5
E7
  8
DEFPOINTS
 62
     0
 10
210.0
 20
130.625
 30
0.0
  0
POINT
  5
E8
  8
DEFPOINTS
 62
     0
 10
215.0
 20
130.625
 30
0.0
  0
POINT
  5
E9
  8
DEFPOINTS
 62
     0
 10
215.0
 20
130.625
 30
0.0
  0
ENDBLK
  5
DF
  8
0
  0
BLOCK
  8
0
  2
*D10
 70
     1
 10
0.0
 20
0.0
 30
0.0
  3
*D10
  1

  0
LINE
  5
EE
  8
LAYER_04
 62
     0
 10
306.25
 20
147.5
 30
0.0
 11
306.25
 21
147.5
 31
0.0
  0
LINE
  5
EF
  8
LAYER_04
 62
     0
 10
306.25
 20
113.75
 30
0.0
 11
306.25
 21
113.75
 31
0.0
  0
LINE
  5
F0
  8
LAYER_04
 62
     0
 10
306.25
 20
145.5
 30
0.0
 11
306.25
 21
136.7954
 31
0.0
  0
LINE
  5
F1
  8
LAYER_04
 62
     0
 10
306.25
 20
115.75
 30
0.0
 11
306.25
 21
124.4546
 31
0.0
  0
INSERT
  5
F2
  8
LAYER_04
 62
     0
  2
_OPEN90
 10
306.25
 20
147.5
 30
0.0
 41
2.0
 42
2.0
 43
2.0
 50
90.0
  0
INSERT
  5
F3
  8
LAYER_04
 62
     0
  2
_OPEN90
 10
306.25
 20
113.75
 30
0.0
 41
2.0
 42
2.0
 43
2.0
 50
270.0
  0
INSERT
  5
F4
  8
LAYER_04
 62
     0
  2
*X14
 10
0.0
 20
0.0
 30
0.0
  0
POINT
  5
F5
  8
DEFPOINTS
 62
     0
 10
306.25
 20
147.5
 30
0.0
  0
POINT
  5
F6
  8
DEFPOINTS
 62
     0
 10
306.25
 20
113.75
 30
0.0
  0
POINT
  5
F7
  8
DEFPOINTS
 62
     0
 10
306.25
 20
113.75
 30
0.0
  0
ENDBLK
  5
ED
  8
0
  0
BLOCK
  8
0
  2
*D11
 70
     1
 10
0.0
 20
0.0
 30
0.0
  3
*D11
  1

  0
LINE
  5
FC
  8
LAYER_04
 62
     0
 10
16.72658048309506
 20
116.25
 30
0.0
 11
16.72658048309506
 21
116.25
 31
0.0
  0
LINE
  5
FD
  8
LAYER_04
 62
     0
 10
16.72658048309506
 20
31.25
 30
0.0
 11
16.72658048309506
 21
31.25
 31
0.0
  0
LINE
  5
FE
  8
LAYER_04
 62
     0
 10
16.72658048309506
 20
114.25
 30
0.0
 11
16.72658048309506
 21
80.69125
 31
0.0
  0
LINE
  5
FF
  8
LAYER_04
 62
     0
 10
16.72658048309506
 20
33.25
 30
0.0
 11
16.72658048309506
 21
66.80875
 31
0.0
  0
INSERT
  5
100
  8
LAYER_04
 62
     0
  2
_OPEN90
 10
16.72658048309506
 20
116.25
 30
0.0
 41
2.0
 42
2.0
 43
2.0
 50
90.0
  0
INSERT
  5
101
  8
LAYER_04
 62
     0
  2
_OPEN90
 10
16.72658048309506
 20
31.25
 30
0.0
 41
2.0
 42
2.0
 43
2.0
 50
270.0
  0
TEXT
  5
102
  8
LAYER_04
 62
     0
 10
18.93608048309507
 20
67.70875000000001
 30
0.0
 40
4.5
  1
  Z+t
 50
90.0
  7
SHOW_AND_TELL
1001
ACADANNOTATIVE
1000
AnnotativeData
1002
{
1070
     1
1070
     0
1002
}
  0
POINT
  5
103
  8
DEFPOINTS
 62
     0
 10
16.72658048309506
 20
116.25
 30
0.0
  0
POINT
  5
104
  8
DEFPOINTS
 62
     0
 10
16.72658048309506
 20
31.25
 30
0.0
  0
POINT
  5
105
  8
DEFPOINTS
 62
     0
 10
16.72658048309506
 20
31.25
 30
0.0
  0
ENDBLK
  5
FB
  8
0
  0
BLOCK
  8
0
  2
*D12
 70
     1
 10
0.0
 20
0.0
 30
0.0
  3
*D12
  1

  0
LINE
  5
10A
  8
LAYER_04
 62
     0
 10
0.0
 20
-9.083786420948172
 30
0.0
 11
0.0
 21
-9.083786420948172
 31
0.0
  0
LINE
  5
10B
  8
LAYER_04
 62
     0
 10
317.5
 20
-9.083786420948172
 30
0.0
 11
317.5
 21
-9.083786420948172
 31
0.0
  0
LINE
  5
10C
  8
LAYER_04
 62
     0
 10
2.0
 20
-9.083786420948172
 30
0.0
 11
137.327525
 21
-9.083786420948172
 31
0.0
  0
LINE
  5
10D
  8
LAYER_04
 62
     0
 10
315.5
 20
-9.083786420948172
 30
0.0
 11
180.172475
 21
-9.083786420948172
 31
0.0
  0
INSERT
  5
10E
  8
LAYER_04
 62
     0
  2
_OPEN90
 10
0.0
 20
-9.083786420948172
 30
0.0
 41
2.0
 42
2.0
 43
2.0
 50
180.0
  0
INSERT
  5
10F
  8
LAYER_04
 62
     0
  2
_OPEN90
 10
317.5
 20
-9.083786420948172
 30
0.0
 41
2.0
 42
2.0
 43
2.0
  0
INSERT
  5
110
  8
LAYER_04
 62
     0
  2
*X15
 10
0.0
 20
0.0
 30
0.0
  0
POINT
  5
111
  8
DEFPOINTS
 62
     0
 10
0.0
 20
-9.083786420948172
 30
0.0
  0
POINT
  5
112
  8
DEFPOINTS
 62
     0
 10
317.5
 20
-9.083786420948172
 30
0.0
  0
POINT
  5
113
  8
DEFPOINTS
 62
     0
 10
317.5
 20
-9.083786420948172
 30
0.0
  0
ENDBLK
  5
109
  8
0
  0
BLOCK
  8
0
  2
*X13
 70
     1
 10
0.0
 20
0.0
 30
0.0
  3
*X13
  1

  0
TEXT
  5
14C
  8
LAYER_04
 62
     0
 10
299.4487
 20
21.5405
 30
0.0
 40
4.5
  1
 20+
  7
SHOW_AND_TELL
  0
TEXT
  5
14D
  8
LAYER_04
 62
     0
 10
311.21485
 20
24.3155
 30
0.0
 40
3.15
  1
t
  7
SHOW_AND_TELL
  0
LINE
  5
14E
  8
LAYER_04
 62
     0
 10
311.0542
 20
23.7905
 30
0.0
 11
313.0513
 21
23.7905
 31
0.0
  0
TEXT
  5
14F
  8
LAYER_04
 62
     0
 10
310.88095
 20
20.14385
 30
0.0
 40
3.15
  1
2
  7
SHOW_AND_TELL
  0
ENDBLK
  5
15F
  8
0
  0
BLOCK
  8
0
  2
*X14
 70
     1
 10
0.0
 20
0.0
 30
0.0
  3
*X14
  1

  0
TEXT
  5
151
  8
LAYER_04
 62
     0
 10
305.725
 20
128.120075
 30
0.0
 40
3.15
  1
x
 50
90.0
  7
SHOW_AND_TELL
  0
LINE
  5
152
  8
LAYER_04
 62
     0
 10
306.25
 20
128.186225
 30
0.0
 11
306.25
 21
130.192775
 31
0.0
  0
TEXT
  5
153
  8
LAYER_04
 62
     0
 10
309.89665
 20
128.0176999999999
 30
0.0
 40
3.15
  1
2
 50
90.0
  7
SHOW_AND_TELL
  0
TEXT
  5
154
  8
LAYER_04
 62
     0
 10
308.5
 20
130.400675
 30
0.0
 40
4.5
  1
+
 50
90.0
  7
SHOW_AND_TELL
  0
TEXT
  5
155
  8
LAYER_04
 62
     0
 10
305.725
 20
133.972325
 30
0.0
 40
3.15
  1
t
 50
90.0
  7
SHOW_AND_TELL
  0
LINE
  5
156
  8
LAYER_04
 62
     0
 10
306.25
 20
133.811675
 30
0.0
 11
306.25
 21
135.808775
 31
0.0
  0
TEXT
  5
157
  8
LAYER_04
 62
     0
 10
309.89665
 20
133.638425
 30
0.0
 40
3.15
  1
2
 50
90.0
  7
SHOW_AND_TELL
  0
ENDBLK
  5
161
  8
0
  0
BLOCK
  8
0
  2
*X15
 70
     1
 10
0.0
 20
0.0
 30
0.0
  3
*X15
  1

  0
TEXT
  5
159
  8
LAYER_04
 62
     0
 10
138.227525
 20
-11.29328642094817
 30
0.0
 40
4.5
  1
  2X+2Y+3
  7
SHOW_AND_TELL
  0
TEXT
  5
15A
  8
LAYER_04
 62
     0
 10
164.5694
 20
-8.518286420948172
 30
0.0
 40
3.15
  1
1
  7
SHOW_AND_TELL
  0
LINE
  5
15B
  8
LAYER_04
 62
     0
 10
164.813525
 20
-9.04328642094817
 30
0.0
 11
166.810625
 21
-9.04328642094817
 31
0.0
  0
TEXT
  5
15C
  8
LAYER_04
 62
     0
 10
164.640275
 20
-12.68993642094817
 30
0.0
 40
3.15
  1
2
  7
SHOW_AND_TELL
  0
TEXT
  5
15D
  8
LAYER_04
 62
     0
 10
167.027975
 20
-11.29328642094817
 30
0.0
 40
4.5
  1
t+20
  7
SHOW_AND_TELL
  0
ENDBLK
  5
163
  8
0
  0
ENDSEC
  0
SECTION
  2
ENTITIES
  0
DIMENSION
  5
68
  8
LAYER_04
  2
*D2
 10
-9.00246054368545
 20
147.5
 30
0.0
 11
-9.002460543685455
 21
73.75
 31
0.0
 70
    32
  1
  Z+X+t   
  3
SHOW_AND_TELL
 13
-9.002460543685459
 23
0.0
 33
0.0
 14
-9.002460543685459
 24
147.5
 34
0.0
 50
90.0
1001
ACAD
1000
DSTYLE
1002
{
1070
   287
1070
     3
1070
     5
1000
OPEN90
1070
    74
1070
     0
1070
   173
1070
     0
1070
    40
1040
1.0
1070
   144
1040
1.0
1070
   179
1070
     1
1070
   143
1040
0.0393700787401575
1070
    41
1040
2.0
1070
    79
1070
     1
1070
   141
1040
2.5
1070
   271
1070
     2
1070
    44
1040
0.0
1070
    42
1040
0.0
1070
   147
1040
0.8999999999999999
1070
    73
1070
     0
1070
   174
1070
     0
1070
   279
1070
     0
1070
   340
1005
61
1070
   140
1040
4.5
1070
   284
1070
     1
1070
    78
1070
     1
1002
}
  0
DIMENSION
  5
77
  8
LAYER_04
  2
*D3
 10
145.0
 20
131.875
 30
0.0
 11
152.195
 21
131.875
 31
0.0
 70
    32
  1
 4
  3
SHOW_AND_TELL
 13
141.0
 23
131.875
 33
0.0
 14
145.0
 24
131.8749999999999
 34
0.0
1001
ACAD
1000
DSTYLE
1002
{
1070
   287
1070
     3
1070
     5
1000
OPEN90
1070
    74
1070
     0
1070
   173
1070
     0
1070
    40
1040
1.0
1070
   144
1040
1.0
1070
   179
1070
     1
1070
   143
1040
0.0393700787401575
1070
    41
1040
2.0
1070
    79
1070
     1
1070
   141
1040
2.5
1070
   271
1070
     2
1070
    44
1040
0.0
1070
    42
1040
0.0
1070
   147
1040
0.8999999999999999
1070
    73
1070
     0
1070
   174
1070
     0
1070
   279
1070
     0
1070
   340
1005
61
1070
   140
1040
4.5
1070
   284
1070
     1
1070
    78
1070
     1
1002
}
  0
TEXT
  5
87
  8
LAYER_05
 10
78.43527514792899
 20
129.8282988165681
 30
0.0
 40
4.5
  1
External markings
  7
SHOW_AND_TELL
1001
ACADANNOTATIVE
1000
AnnotativeData
1002
{
1070
     1
1070
     0
1002
}
  0
TEXT
  5
88
  8
LAYER_05
 10
228.435275147929
 20
129.8282988165681
 30
0.0
 40
4.5
  1
External markings
  7
SHOW_AND_TELL
1001
ACADANNOTATIVE
1000
AnnotativeData
1002
{
1070
     1
1070
     0
1002
}
  0
LINE
  5
89
  8
LAYER_05
 10
219.0
 20
120.25
 30
0.0
 11
291.0
 21
120.25
 31
0.0
  0
LINE
  5
8A
  8
LAYER_05
 10
291.0
 20
120.25
 30
0.0
 11
291.0
 21
143.5
 31
0.0
  0
LINE
  5
8B
  8
LAYER_05
 10
291.0
 20
143.5
 30
0.0
 11
219.0
 21
143.5
 31
0.0
  0
LINE
  5
8C
  8
LAYER_05
 10
219.0
 20
143.5
 30
0.0
 11
219.0
 21
120.25
 31
0.0
  0
LINE
  5
8D
  8
LAYER_05
 10
69.0
 20
120.25
 30
0.0
 11
141.0
 21
120.25
 31
0.0
  0
LINE
  5
8E
  8
LAYER_05
 10
141.0
 20
120.25
 30
0.0
 11
141.0
 21
143.5
 31
0.0
  0
LINE
  5
8F
  8
LAYER_05
 10
141.0
 20
143.5
 30
0.0
 11
69.0
 21
143.5
 31
0.0
  0
LINE
  5
90
  8
LAYER_05
 10
69.0
 20
143.5
 30
0.0
 11
69.0
 21
120.25
 31
0.0
  0
DIMENSION
  5
91
  8
LAYER_04
  2
*D4
 10
295.0
 20
73.72897776722954
 30
0.0
 11
288.6735
 21
73.72897776722954
 31
0.0
 70
    32
  1
2
  3
SHOW_AND_TELL
 13
297.0
 23
73.75
 33
0.0
 14
295.0
 24
73.74999999999989
 34
0.0
1001
ACAD
1000
DSTYLE
1002
{
1070
   287
1070
     3
1070
     5
1000
OPEN90
1070
    74
1070
     0
1070
   173
1070
     0
1070
    40
1040
1.0
1070
   144
1040
1.0
1070
   179
1070
     1
1070
   143
1040
0.0393700787401575
1070
    41
1040
2.0
1070
    79
1070
     1
1070
   141
1040
2.5
1070
   271
1070
     2
1070
    44
1040
0.0
1070
    42
1040
0.0
1070
   147
1040
0.8999999999999999
1070
    73
1070
     0
1070
   174
1070
     0
1070
   279
1070
     0
1070
   340
1005
61
1070
   140
1040
4.5
1070
   284
1070
     1
1070
    78
1070
     1
1002
}
  0
TEXT
  5
9F
  8
LAYER_05
 10
307.6161206076112
 20
47.74444674556219
 30
0.0
 40
4.5
  1
Internal markings
 50
90.0
  7
SHOW_AND_TELL
1001
ACADANNOTATIVE
1000
AnnotativeData
1002
{
1070
     1
1070
     0
1002
}
  0
LINE
  5
A0
  8
LAYER_05
 10
297.0
 20
35.75
 30
0.0
 11
315.5
 21
35.75
 31
0.0
  0
LINE
  5
A1
  8
LAYER_05
 10
315.5
 20
35.75
 30
0.0
 11
315.5
 21
111.75
 31
0.0
  0
LINE
  5
A2
  8
LAYER_05
 10
315.5
 20
111.75
 30
0.0
 11
297.0
 21
111.75
 31
0.0
  0
LINE
  5
A3
  8
LAYER_05
 10
297.0
 20
111.75
 30
0.0
 11
297.0
 21
35.75
 31
0.0
  0
DIMENSION
  5
A4
  8
LAYER_04
  2
*D5
 10
0.0
 20
16.875
 30
0.0
 11
30.0
 21
16.875
 31
0.0
 70
    32
  1
  X   
  3
SHOW_AND_TELL
 13
60.0
 23
16.875
 33
0.0
 14
0.0
 24
16.875
 34
0.0
1001
ACAD
1000
DSTYLE
1002
{
1070
   287
1070
     3
1070
     5
1000
OPEN90
1070
    74
1070
     0
1070
   173
1070
     0
1070
    40
1040
1.0
1070
   144
1040
1.0
1070
   179
1070
     1
1070
   143
1040
0.0393700787401575
1070
    41
1040
2.0
1070
    79
1070
     1
1070
   141
1040
2.5
1070
   271
1070
     2
1070
    44
1040
0.0
1070
    42
1040
0.0
1070
   147
1040
0.8999999999999999
1070
    73
1070
     0
1070
   174
1070
     0
1070
   279
1070
     0
1070
   340
1005
61
1070
   140
1040
4.5
1070
   284
1070
     1
1070
    78
1070
     1
1002
}
  0
DIMENSION
  5
B2
  8
LAYER_04
  2
*D6
 10
65.0
 20
16.875
 30
0.0
 11
105.0
 21
16.875
 31
0.0
 70
    32
  1
  Y   
  3
SHOW_AND_TELL
 13
145.0
 23
16.875
 33
0.0
 14
65.0
 24
16.875
 34
0.0
1001
ACAD
1000
DSTYLE
1002
{
1070
   287
1070
     3
1070
     5
1000
OPEN90
1070
    74
1070
     0
1070
   173
1070
     0
1070
    40
1040
1.0
1070
   144
1040
1.0
1070
   179
1070
     1
1070
   143
1040
0.0393700787401575
1070
    41
1040
2.0
1070
    79
1070
     1
1070
   141
1040
2.5
1070
   271
1070
     2
1070
    44
1040
0.0
1070
    42
1040
0.0
1070
   147
1040
0.8999999999999999
1070
    73
1070
     0
1070
   174
1070
     0
1070
   279
1070
     0
1070
   340
1005
61
1070
   140
1040
4.5
1070
   284
1070
     1
1070
    78
1070
     1
1002
}
  0
DIMENSION
  5
C0
  8
LAYER_04
  2
*D7
 10
295.0
 20
23.75
 30
0.0
 11
306.25
 21
23.75
 31
0.0
 70
    32
  1
\A1; 20+{\H0.7x;\St/2;} 
  3
SHOW_AND_TELL
 13
317.5
 23
23.75
 33
0.0
 14
295.0
 24
23.75
 34
0.0
1001
ACAD
1000
DSTYLE
1002
{
1070
   287
1070
     3
1070
     5
1000
OPEN90
1070
    74
1070
     0
1070
   173
1070
     0
1070
    40
1040
1.0
1070
   144
1040
1.0
1070
   179
1070
     1
1070
   143
1040
0.0393700787401575
1070
    41
1040
2.0
1070
    79
1070
     1
1070
   141
1040
2.5
1070
   271
1070
     2
1070
    44
1040
0.0
1070
    42
1040
0.0
1070
   147
1040
0.8999999999999999
1070
    73
1070
     0
1070
   174
1070
     0
1070
   279
1070
     0
1070
   340
1005
61
1070
   140
1040
4.5
1070
   284
1070
     1
1070
    78
1070
     1
1002
}
  0
DIMENSION
  5
CE
  8
LAYER_04
  2
*D8
 10
58.75000000000001
 20
113.75
 30
0.0
 11
58.75
 21
73.75
 31
0.0
 70
    32
  1
  Z   
  3
SHOW_AND_TELL
 13
58.75
 23
33.75
 33
0.0
 14
58.75
 24
113.75
 34
0.0
 50
90.0
1001
ACAD
1000
DSTYLE
1002
{
1070
   287
1070
     3
1070
     5
1000
OPEN90
1070
    74
1070
     0
1070
   173
1070
     0
1070
    40
1040
1.0
1070
   144
1040
1.0
1070
   179
1070
     1
1070
   143
1040
0.0393700787401575
1070
    41
1040
2.0
1070
    79
1070
     1
1070
   141
1040
2.5
1070
   271
1070
     2
1070
    44
1040
0.0
1070
    42
1040
0.0
1070
   147
1040
0.8999999999999999
1070
    73
1070
     0
1070
   174
1070
     0
1070
   279
1070
     0
1070
   340
1005
61
1070
   140
1040
4.5
1070
   284
1070
     1
1070
    78
1070
     1
1002
}
  0
DIMENSION
  5
DC
  8
LAYER_04
  2
*D9
 10
215.0
 20
130.625
 30
0.0
 11
221.7
 21
130.625
 31
0.0
 70
    32
  1
 t 
  3
SHOW_AND_TELL
 13
210.0
 23
130.625
 33
0.0
 14
215.0
 24
130.625
 34
0.0
1001
ACAD
1000
DSTYLE
1002
{
1070
   287
1070
     3
1070
     5
1000
OPEN90
1070
    74
1070
     0
1070
   173
1070
     0
1070
    40
1040
1.0
1070
   144
1040
1.0
1070
   179
1070
     1
1070
   143
1040
0.0393700787401575
1070
    41
1040
2.0
1070
    79
1070
     1
1070
   141
1040
2.5
1070
   271
1070
     2
1070
    44
1040
0.0
1070
    42
1040
0.0
1070
   147
1040
0.8999999999999999
1070
    73
1070
     0
1070
   174
1070
     0
1070
   279
1070
     0
1070
   340
1005
61
1070
   140
1040
4.5
1070
   284
1070
     1
1070
    78
1070
     1
1002
}
  0
DIMENSION
  5
EA
  8
LAYER_04
  2
*D10
 10
306.25
 20
113.75
 30
0.0
 11
306.25
 21
130.625
 31
0.0
 70
    32
  1
\A1;\A1;  {\H0.7x;\Sx/2;}+{\H0.7x;\St/2;}  
  3
SHOW_AND_TELL
 13
306.25
 23
147.5
 33
0.0
 14
306.25
 24
113.75
 34
0.0
 50
90.0
1001
ACAD
1000
DSTYLE
1002
{
1070
   287
1070
     3
1070
     5
1000
OPEN90
1070
    74
1070
     0
1070
   173
1070
     0
1070
    40
1040
1.0
1070
   144
1040
1.0
1070
   179
1070
     1
1070
   143
1040
0.0393700787401575
1070
    41
1040
2.0
1070
    79
1070
     1
1070
   141
1040
2.5
1070
   271
1070
     2
1070
    44
1040
0.0
1070
    42
1040
0.0
1070
   147
1040
0.8999999999999999
1070
    73
1070
     0
1070
   174
1070
     0
1070
   279
1070
     0
1070
   340
1005
61
1070
   140
1040
4.5
1070
   284
1070
     1
1070
    78
1070
     1
1002
}
  0
DIMENSION
  5
F8
  8
LAYER_04
  2
*D11
 10
16.72658048309506
 20
31.25
 30
0.0
 11
16.72658048309506
 21
73.75
 31
0.0
 70
    32
  1
  Z+t   
  3
SHOW_AND_TELL
 13
16.72658048309506
 23
116.25
 33
0.0
 14
16.72658048309506
 24
31.25
 34
0.0
 50
90.0
1001
ACAD
1000
DSTYLE
1002
{
1070
   287
1070
     3
1070
     5
1000
OPEN90
1070
    74
1070
     0
1070
   173
1070
     0
1070
    40
1040
1.0
1070
   144
1040
1.0
1070
   179
1070
     1
1070
   143
1040
0.0393700787401575
1070
    41
1040
2.0
1070
    79
1070
     1
1070
   141
1040
2.5
1070
   271
1070
     2
1070
    44
1040
0.0
1070
    42
1040
0.0
1070
   147
1040
0.8999999999999999
1070
    73
1070
     0
1070
   174
1070
     0
1070
   279
1070
     0
1070
   340
1005
61
1070
   140
1040
4.5
1070
   284
1070
     1
1070
    78
1070
     1
1002
}
  0
DIMENSION
  5
106
  8
LAYER_04
  2
*D12
 10
317.5
 20
-9.083786420948172
 30
0.0
 11
158.75
 21
-9.083786420948172
 31
0.0
 70
    32
  1
\A1;  2X+2Y+3{\H0.7x;\S1/2;}t+20   
  3
SHOW_AND_TELL
 13
0.0
 23
-9.083786420948172
 33
0.0
 14
317.5
 24
-9.083786420948172
 34
0.0
1001
ACAD
1000
DSTYLE
1002
{
1070
   287
1070
     3
1070
     5
1000
OPEN90
1070
    74
1070
     0
1070
   173
1070
     0
1070
    40
1040
1.0
1070
   144
1040
1.0
1070
   179
1070
     1
1070
   143
1040
0.0393700787401575
1070
    41
1040
2.0
1070
    79
1070
     1
1070
   141
1040
2.5
1070
   271
1070
     2
1070
    44
1040
0.0
1070
    42
1040
0.0
1070
   147
1040
0.8999999999999999
1070
    73
1070
     0
1070
   174
1070
     0
1070
   279
1070
     0
1070
   340
1005
61
1070
   140
1040
4.5
1070
   284
1070
     1
1070
    78
1070
     1
1002
}
  0
LINE
  5
116
  8
LAYER_01
 10
60.00000000000003
 20
31.25
 30
0.0
 11
0.0000000000000284
 21
31.25
 31
0.0
  0
LINE
  5
117
  8
LAYER_01
 10
145.0
 20
31.25
 30
0.0
 11
65.00000000000003
 21
31.25
 31
0.0
  0
LINE
  5
118
  8
LAYER_01
 10
210.0
 20
31.25
 30
0.0
 11
150.0
 21
31.25
 31
0.0
  0
LINE
  5
119
  8
LAYER_01
 10
295.0
 20
31.25
 30
0.0
 11
215.0
 21
31.25
 31
0.0
  0
LINE
  5
11A
  8
LAYER_01
 10
215.0
 20
116.25
 30
0.0
 11
295.0
 21
116.25
 31
0.0
  0
LINE
  5
11B
  8
LAYER_01
 10
150.0
 20
116.25
 30
0.0
 11
210.0
 21
116.25
 31
0.0
  0
LINE
  5
11C
  8
LAYER_01
 10
65.0
 20
116.25
 30
0.0
 11
145.0
 21
116.25
 31
0.0
  0
LINE
  5
11D
  8
LAYER_01
 10
0.0000000000000284
 20
116.25
 30
0.0
 11
59.99999999999997
 21
116.25
 31
0.0
  0
LINE
  5
11F
  8
LAYER_03
 10
0.0
 20
0.0
 30
0.0
 11
0.0
 21
147.5
 31
0.0
  0
LINE
  5
120
  8
LAYER_03
 10
0.0
 20
147.5
 30
0.0
 11
60.0
 21
147.5
 31
0.0
  0
LINE
  5
121
  8
LAYER_03
 10
60.0
 20
147.5
 30
0.0
 11
60.0
 21
113.75
 31
0.0
  0
LINE
  5
122
  8
LAYER_03
 10
60.0
 20
113.75
 30
0.0
 11
65.0
 21
113.75
 31
0.0
  0
LINE
  5
123
  8
LAYER_03
 10
65.0
 20
113.75
 30
0.0
 11
65.0
 21
147.5
 31
0.0
  0
LINE
  5
124
  8
LAYER_03
 10
65.0
 20
147.5
 30
0.0
 11
145.0
 21
147.5
 31
0.0
  0
LINE
  5
125
  8
LAYER_03
 10
145.0
 20
147.5
 30
0.0
 11
145.0
 21
113.75
 31
0.0
  0
LINE
  5
126
  8
LAYER_03
 10
145.0
 20
113.75
 30
0.0
 11
150.0
 21
113.75
 31
0.0
  0
LINE
  5
127
  8
LAYER_03
 10
150.0
 20
113.75
 30
0.0
 11
150.0
 21
147.5
 31
0.0
  0
LINE
  5
128
  8
LAYER_03
 10
150.0
 20
147.5
 30
0.0
 11
210.0
 21
147.5
 31
0.0
  0
LINE
  5
129
  8
LAYER_03
 10
210.0
 20
147.5
 30
0.0
 11
210.0
 21
113.75
 31
0.0
  0
LINE
  5
12A
  8
LAYER_03
 10
210.0
 20
113.75
 30
0.0
 11
215.0
 21
113.75
 31
0.0
  0
LINE
  5
12B
  8
LAYER_03
 10
215.0
 20
113.75
 30
0.0
 11
215.0
 21
147.5
 31
0.0
  0
LINE
  5
12C
  8
LAYER_03
 10
215.0
 20
147.5
 30
0.0
 11
295.0
 21
147.5
 31
0.0
  0
LINE
  5
12D
  8
LAYER_03
 10
295.0
 20
147.5
 30
0.0
 11
295.0
 21
113.75
 31
0.0
  0
LINE
  5
12E
  8
LAYER_03
 10
295.0
 20
113.75
 30
0.0
 11
317.5
 21
113.75
 31
0.0
  0
LINE
  5
12F
  8
LAYER_03
 10
317.5
 20
113.75
 30
0.0
 11
317.5
 21
33.75
 31
0.0
  0
LINE
  5
130
  8
LAYER_03
 10
317.5
 20
33.75
 30
0.0
 11
295.0
 21
33.75
 31
0.0
  0
LINE
  5
131
  8
LAYER_03
 10
295.0
 20
33.75
 30
0.0
 11
295.0
 21
0.0
 31
0.0
  0
LINE
  5
132
  8
LAYER_03
 10
295.0
 20
0.0
 30
0.0
 11
215.0
 21
0.0
 31
0.0
  0
LINE
  5
133
  8
LAYER_03
 10
215.0
 20
0.0
 30
0.0
 11
215.0
 21
33.75
 31
0.0
  0
LINE
  5
134
  8
LAYER_03
 10
215.0
 20
33.75
 30
0.0
 11
210.0
 21
33.75
 31
0.0
  0
LINE
  5
135
  8
LAYER_03
 10
210.0
 20
33.75
 30
0.0
 11
210.0
 21
0.0
 31
0.0
  0
LINE
  5
136
  8
LAYER_03
 10
210.0
 20
0.0
 30
0.0
 11
150.0
 21
0.0
 31
0.0
  0
LINE
  5
137
  8
LAYER_03
 10
150.0
 20
0.0
 30
0.0
 11
150.0
 21
33.75
 31
0.0
  0
LINE
  5
138
  8
LAYER_03
 10
150.0
 20
33.75
 30
0.0
 11
145.0
 21
33.75
 31
0.0
  0
LINE
  5
139
  8
LAYER_03
 10
145.0
 20
33.75
 30
0.0
 11
145.0
 21
0.0
 31
0.0
  0
LINE
  5
13A
  8
LAYER_03
 10
145.0
 20
0.0
 30
0.0
 11
65.0
 21
0.0
 31
0.0
  0
LINE
  5
13B
  8
LAYER_03
 10
65.0
 20
0.0
 30
0.0
 11
65.0
 21
33.75
 31
0.0
  0
LINE
  5
13C
  8
LAYER_03
 10
65.0
 20
33.75
 30
0.0
 11
60.0
 21
33.75
 31
0.0
  0
LINE
  5
13D
  8
LAYER_03
 10
60.0
 20
33.75
 30
0.0
 11
60.0
 21
0.0
 31
0.0
  0
LINE
  5
13E
  8
LAYER_03
 10
60.0
 20
0.0
 30
0.0
 11
0.0
 21
0.0
 31
0.0
  0
LINE
  5
13F
  8
LAYER_01
 10
212.5
 20
113.75
 30
0.0
 11
212.5
 21
33.75
 31
0.0
  0
LINE
  5
140
  8
LAYER_01
 10
295.0
 20
113.75
 30
0.0
 11
295.0
 21
33.75
 31
0.0
  0
LINE
  5
141
  8
LAYER_01
 10
62.5
 20
113.75
 30
0.0
 11
62.5
 21
33.75
 31
0.0
  0
LINE
  5
142
  8
LAYER_01
 10
147.5
 20
113.75
 30
0.0
 11
147.5
 21
33.75
 31
0.0
  0
ENDSEC
  0
EOF
